<svg xmlns="http://www.w3.org/2000/svg" viewBox="0 10.690000534057617 116.37999725341797 34.6200065612793" data-asc="0.89111328125" width="116.37999725341797" height="34.6200065612793">
  <defs>
    <linearGradient id="stav-logo-vertical-gray" x1="0" y1="10.69" x2="0" y2="45.31" gradientUnits="userSpaceOnUse">
      <stop offset="0%" stop-color="#dddddd"/>
      <stop offset="100%" stop-color="#494949"/>
    </linearGradient>
  </defs>
  <g>
    <g transform="translate(0, 0)">
      <path fill="url(#stav-logo-vertical-gray)" d="M19.80 10.69L19.80 22.14L18.90 22.14Q18.46 18.85 17.32 16.89Q16.19 14.94 14.09 13.79Q11.99 12.65 9.74 12.65Q7.20 12.65 5.54 14.20Q3.88 15.75 3.88 17.72Q3.88 19.24 4.93 20.48Q6.45 22.31 12.13 25.37Q16.77 27.86 18.47 29.19Q20.17 30.52 21.08 32.32Q22.00 34.13 22.00 36.11Q22.00 39.87 19.08 42.59Q16.16 45.31 11.57 45.31Q10.13 45.31 8.86 45.09Q8.11 44.97 5.73 44.20Q3.34 43.43 2.71 43.43Q2.10 43.43 1.75 43.80Q1.39 44.17 1.22 45.31L0.32 45.31L0.32 33.96L1.22 33.96Q1.86 37.52 2.93 39.29Q4.00 41.06 6.21 42.24Q8.42 43.41 11.06 43.41Q14.11 43.41 15.88 41.80Q17.65 40.19 17.65 37.99Q17.65 36.77 16.98 35.52Q16.31 34.28 14.89 33.20Q13.94 32.47 9.69 30.09Q5.44 27.71 3.65 26.29Q1.86 24.88 0.93 23.17Q0 21.46 0 19.41Q0 15.84 2.73 13.27Q5.47 10.69 9.69 10.69Q12.33 10.69 15.28 11.99Q16.65 12.60 17.21 12.60Q17.85 12.60 18.25 12.22Q18.65 11.84 18.90 10.69L19.80 10.69ZM53.61 11.45L53.98 19.21L53.05 19.21Q52.78 17.16 52.32 16.28Q51.56 14.87 50.31 14.20Q49.05 13.53 47.00 13.53L42.33 13.53L42.33 38.82Q42.33 41.87 42.99 42.63Q43.92 43.65 45.85 43.65L47.00 43.65L47.00 44.56L32.96 44.56L32.96 43.65L34.13 43.65Q36.23 43.65 37.11 42.38Q37.65 41.60 37.65 38.82L37.65 13.53L33.67 13.53Q31.35 13.53 30.37 13.87Q29.10 14.33 28.20 15.65Q27.29 16.97 27.12 19.21L26.20 19.21L26.59 11.45L53.61 11.45ZM74.10 33.47L61.28 33.47L59.03 38.70Q58.20 40.63 58.20 41.58Q58.20 42.33 58.92 42.91Q59.64 43.48 62.04 43.65L62.04 44.56L51.61 44.56L51.61 43.65Q53.69 43.29 54.30 42.70Q55.54 41.53 57.06 37.94L68.70 10.69L69.56 10.69L81.08 38.23Q82.47 41.55 83.61 42.54Q84.74 43.53 86.77 43.65L86.77 44.56L73.71 44.56L73.71 43.65Q75.68 43.55 76.38 42.99Q77.08 42.43 77.08 41.63Q77.08 40.55 76.10 38.23L74.10 33.47M73.41 31.67L67.80 18.29L62.04 31.67L73.41 31.67ZM116.38 11.45L116.38 12.35Q114.62 12.67 113.72 13.48Q112.43 14.67 111.43 17.14L99.88 45.31L98.97 45.31L86.57 16.77Q85.62 14.58 85.23 14.09Q84.62 13.33 83.73 12.90Q82.84 12.48 81.32 12.35L81.32 11.45L94.85 11.45L94.85 12.35Q92.55 12.57 91.87 13.13Q91.19 13.70 91.19 14.58Q91.19 15.80 92.31 18.38L100.73 37.79L108.54 18.63Q109.69 15.80 109.69 14.70Q109.69 13.99 108.98 13.34Q108.28 12.70 106.59 12.43Q106.47 12.40 106.18 12.35L106.18 11.45L116.38 11.45Z"/>
    </g>
  </g>
</svg>
